<?xml version="1.0" standalone="no"?>
<!DOCTYPE svg PUBLIC "-//W3C//DTD SVG 20010904//EN"
 "http://www.w3.org/TR/2001/REC-SVG-20010904/DTD/svg10.dtd">
<svg version="1.0" xmlns="http://www.w3.org/2000/svg"
 width="512.000000pt" height="512.000000pt" viewBox="0 0 512.000000 512.000000"
 preserveAspectRatio="xMidYMid meet">

<g transform="translate(0.000000,512.000000) scale(0.100000,-0.100000)"
fill="#000000" stroke="none">
<path d="M2490 5111 c-115 -38 -195 -129 -207 -235 l-5 -43 -87 -22 c-177 -45
-369 -138 -519 -251 -177 -133 -360 -360 -447 -554 l-39 -86 -126 0 c-144 0
-184 -13 -237 -73 -68 -78 -68 -186 0 -264 53 -60 93 -73 240 -73 l128 0 20
-47 c11 -27 45 -136 74 -243 67 -243 94 -320 157 -441 151 -291 449 -485 846
-549 39 -7 72 -14 72 -16 0 -2 -29 -42 -64 -88 -201 -264 -377 -582 -472 -856
-36 -105 -74 -264 -74 -316 0 -17 -3 -46 -6 -63 l-6 -31 -169 0 -169 0 0 -155
0 -155 -135 0 -135 0 0 -275 0 -275 1415 0 1415 0 0 275 0 275 -135 0 -135 0
0 155 0 155 -154 0 -153 0 -7 31 c-3 17 -6 46 -6 63 0 52 -38 211 -74 316 -95
274 -271 592 -472 856 -35 46 -64 86 -64 88 0 2 33 9 73 16 230 37 421 116
583 239 112 84 198 187 262 310 63 121 90 198 157 441 29 107 63 216 74 243
l20 47 128 0 c147 0 187 13 240 73 68 78 68 186 0 264 -53 60 -93 73 -237 73
l-126 0 -39 86 c-87 194 -270 421 -447 554 -150 113 -342 206 -519 251 l-87
22 -5 43 c-14 128 -128 232 -262 240 -33 2 -71 0 -85 -5z"/>
</g>
</svg>
