<?xml version="1.0" standalone="no"?>
<!DOCTYPE svg PUBLIC "-//W3C//DTD SVG 20010904//EN"
 "http://www.w3.org/TR/2001/REC-SVG-20010904/DTD/svg10.dtd">
<svg version="1.0" xmlns="http://www.w3.org/2000/svg"
 width="512.000000pt" height="512.000000pt" viewBox="0 0 512.000000 512.000000"
 preserveAspectRatio="xMidYMid meet">

<g transform="translate(0.000000,512.000000) scale(0.100000,-0.100000)"
fill="#000000" stroke="none">
<path d="M2547 5085 c-3 -11 -126 -713 -273 -1560 l-267 -1539 197 -191 c108
-104 196 -193 196 -197 0 -5 -100 -8 -223 -8 l-223 0 -29 30 c-115 120 -327
78 -393 -80 -9 -22 -13 -57 -10 -101 12 -211 246 -302 404 -157 l42 39 128 -3
127 -3 12 -57 c15 -75 59 -144 123 -192 l52 -39 0 -100 c0 -97 -1 -100 -31
-135 -90 -102 -92 -250 -4 -332 l24 -22 -29 -37 c-79 -99 -79 -224 1 -315 147
-167 418 -67 419 155 0 59 -32 140 -70 174 -19 17 -19 18 14 56 79 93 73 231
-15 316 l-39 38 0 102 0 101 44 26 c80 46 134 128 151 224 l7 42 137 0 137 0
33 -34 c110 -113 293 -95 375 38 37 59 47 159 24 216 -66 158 -278 200 -393
80 l-29 -30 -235 0 -236 0 198 198 c114 114 197 205 197 216 0 13 -515 2995
-533 3086 -2 11 -5 9 -10 -5z"/>
</g>
</svg>
