<?xml version="1.0" standalone="no"?>
<!DOCTYPE svg PUBLIC "-//W3C//DTD SVG 20010904//EN"
 "http://www.w3.org/TR/2001/REC-SVG-20010904/DTD/svg10.dtd">
<svg version="1.0" xmlns="http://www.w3.org/2000/svg"
 width="512.000000pt" height="512.000000pt" viewBox="0 0 512.000000 512.000000"
 preserveAspectRatio="xMidYMid meet">

<g transform="translate(0.000000,512.000000) scale(0.100000,-0.100000)"
fill="#000000" stroke="none">
<path d="M2406 4991 l-149 -129 -102 48 c-56 27 -129 62 -161 78 -104 52 -87
61 -209 -118 -82 -121 -114 -160 -129 -160 -12 1 -100 16 -196 34 -122 23
-177 29 -182 22 -4 -6 -35 -91 -69 -188 -54 -155 -64 -178 -83 -178 -38 0
-369 -30 -373 -33 -3 -4 -33 -335 -33 -373 0 -19 -23 -29 -178 -83 -97 -34
-182 -65 -188 -69 -7 -5 -1 -60 22 -182 18 -96 33 -184 34 -196 0 -15 -39 -47
-160 -129 -179 -122 -170 -105 -118 -209 16 -32 51 -105 78 -161 l48 -102
-130 -152 -129 -151 129 -151 130 -152 -48 -102 c-27 -56 -62 -129 -78 -161
-52 -104 -61 -87 118 -209 121 -82 160 -114 160 -129 -1 -12 -16 -100 -34
-196 -23 -122 -29 -177 -22 -182 6 -4 91 -35 188 -69 155 -54 178 -64 178 -83
0 -38 30 -369 33 -373 4 -3 335 -33 373 -33 19 0 29 -23 83 -178 34 -97 65
-182 69 -188 5 -7 60 -1 182 22 96 18 184 33 196 34 15 0 47 -39 129 -160 122
-179 105 -170 209 -118 32 16 105 51 161 78 l102 48 152 -130 151 -129 151
129 152 130 102 -48 c56 -27 129 -62 161 -78 104 -52 87 -61 209 118 82 121
114 160 129 160 12 -1 100 -16 196 -34 122 -23 177 -29 182 -22 4 6 35 91 69
188 54 155 64 178 83 178 37 0 369 30 373 33 3 3 33 345 33 378 0 12 43 32
178 78 97 34 182 65 188 69 7 5 1 60 -22 182 -18 96 -33 184 -34 196 0 15 39
47 160 129 179 122 170 105 118 209 -16 32 -51 105 -78 161 l-48 102 130 152
129 151 -129 151 -130 152 48 102 c27 56 62 129 78 161 52 104 61 87 -118 209
-121 82 -160 114 -160 129 1 12 16 100 34 196 23 122 29 177 22 182 -6 4 -91
35 -188 69 -155 54 -178 64 -178 83 0 38 -30 369 -33 373 -4 3 -335 33 -373
33 -19 0 -29 23 -83 178 -34 97 -65 182 -69 188 -5 7 -60 1 -182 -22 -96 -18
-184 -33 -196 -34 -15 0 -47 39 -129 160 -122 179 -105 170 -209 118 -32 -16
-105 -51 -161 -78 l-102 -48 -151 129 c-83 71 -153 129 -154 128 -2 0 -70 -58
-152 -128z m345 -461 c294 -30 600 -134 854 -290 235 -144 491 -400 635 -635
313 -509 382 -1109 195 -1672 -101 -302 -248 -538 -479 -769 -231 -231 -467
-378 -769 -479 -563 -187 -1163 -118 -1672 195 -235 144 -491 400 -635 635
-191 310 -300 691 -300 1045 0 419 147 855 403 1195 78 103 279 304 382 382
397 298 902 442 1386 393z"/>
<path d="M1950 3849 c-111 -19 -213 -89 -255 -174 -18 -36 -20 -65 -23 -281
l-3 -242 -84 -172 c-47 -94 -85 -184 -85 -199 0 -43 30 -62 105 -68 l65 -6 0
-121 c0 -106 3 -127 24 -171 30 -64 76 -107 151 -142 57 -27 67 -28 238 -31
l177 -4 0 -227 0 -228 -119 -6 c-144 -6 -216 -33 -282 -104 -70 -76 -82 -117
-87 -280 l-4 -143 681 0 681 0 0 169 0 169 43 7 c103 16 211 75 270 147 129
157 133 399 9 563 -44 59 -143 128 -208 147 l-47 13 81 52 c333 217 437 645
239 983 -53 91 -188 219 -284 268 -163 84 -171 85 -733 88 -276 1 -519 -2
-550 -7z"/>
<path d="M3929 3530 c-113 -73 -117 -76 -101 -92 10 -10 21 -8 53 10 l40 23
33 -36 c25 -26 42 -35 65 -35 40 0 81 39 81 76 0 33 -46 114 -64 114 -7 0 -55
-27 -107 -60z m131 -49 c0 -46 -50 -54 -79 -12 l-21 29 33 21 32 21 18 -21 c9
-12 17 -29 17 -38z"/>
<path d="M951 3385 c-23 -26 -31 -45 -31 -73 0 -43 7 -55 37 -71 34 -17 40
-15 98 40 62 59 88 62 93 11 3 -29 -3 -40 -39 -73 -35 -32 -39 -40 -25 -45 42
-16 106 55 106 117 0 51 -24 79 -66 79 -29 0 -43 -9 -84 -51 -27 -28 -55 -49
-62 -47 -7 3 -14 19 -16 37 -3 25 3 37 27 59 17 14 31 32 31 39 0 25 -38 13
-69 -22z"/>
<path d="M4065 3277 c-65 -28 -101 -48 -103 -60 -4 -22 28 -23 68 -2 27 14 30
14 40 -4 18 -35 12 -61 -20 -79 -36 -20 -45 -41 -28 -59 11 -10 21 -6 55 25
32 30 49 38 78 38 43 0 85 39 85 77 -1 38 -37 107 -57 106 -10 0 -63 -19 -118
-42z m123 -35 c13 -37 -1 -62 -34 -62 -19 0 -28 8 -39 32 -13 31 -12 33 13 45
41 18 49 15 60 -15z"/>
<path d="M863 3065 c-38 -16 -73 -68 -73 -108 0 -16 8 -45 17 -64 47 -100 207
-97 249 4 48 113 -75 220 -193 168z m107 -40 c35 -18 50 -43 50 -82 0 -33 -7
-43 -40 -66 -35 -24 -74 -21 -109 9 -24 20 -31 34 -31 62 0 45 7 56 45 76 37
20 49 20 85 1z"/>
<path d="M4180 2983 c-63 -14 -118 -28 -123 -32 -10 -9 17 -139 32 -154 8 -8
14 -8 22 0 8 8 8 25 0 64 -13 57 -7 69 36 69 17 0 24 -7 29 -27 10 -48 24 -75
37 -70 12 4 14 27 6 81 -3 26 0 31 25 37 17 5 32 7 34 4 2 -2 9 -27 16 -57 8
-36 17 -54 29 -56 12 -3 17 3 17 22 0 41 -20 124 -33 134 -8 6 -54 0 -127 -15z"/>
<path d="M763 2683 c-9 -22 15 -33 78 -33 31 0 83 -3 116 -6 50 -6 61 -4 66
10 9 24 -21 32 -146 39 -92 5 -109 4 -114 -10z"/>
<path d="M4103 2674 c-9 -25 12 -31 95 -27 l77 4 -43 -38 c-23 -21 -42 -41
-42 -44 0 -4 19 -19 42 -35 l42 -29 -85 -5 c-67 -4 -84 -8 -87 -21 -5 -25 16
-28 142 -22 139 7 147 18 61 78 l-55 38 52 39 c85 63 76 72 -70 76 -106 2
-123 0 -129 -14z"/>
<path d="M980 2520 c-8 -3 -30 -14 -48 -23 -24 -12 -39 -14 -52 -7 -32 17 -70
11 -95 -15 -20 -20 -25 -34 -25 -78 0 -32 5 -59 13 -65 8 -6 49 -7 122 0 128
10 135 12 135 33 0 11 -12 15 -49 15 -41 0 -51 4 -56 20 -9 28 11 59 43 66 15
4 33 11 40 17 27 21 4 52 -28 37z m-112 -72 c7 -7 12 -27 12 -45 0 -32 -1 -33
-40 -33 -39 0 -40 1 -40 33 0 36 15 57 40 57 9 0 21 -5 28 -12z"/>
<path d="M4080 2291 c0 -21 17 -26 173 -52 51 -8 72 -8 80 0 20 20 -5 30 -118
51 -134 25 -135 25 -135 1z"/>
<path d="M922 2174 c-136 -100 -135 -105 28 -121 69 -7 131 -10 138 -8 22 8
12 35 -15 41 -16 3 -33 7 -40 9 -6 2 -14 23 -18 46 -7 37 -5 45 14 57 23 16
29 52 8 52 -7 0 -59 -34 -115 -76z m52 -50 c4 -15 6 -27 4 -29 -2 -1 -20 0
-42 3 l-38 4 28 24 c37 30 40 30 48 -2z"/>
<path d="M4071 2112 c-37 -20 -71 -73 -71 -110 0 -36 29 -90 59 -111 112 -78
263 33 206 153 -35 74 -126 106 -194 68z m133 -58 c56 -57 18 -144 -62 -144
-79 0 -122 91 -70 147 31 34 96 32 132 -3z"/>
<path d="M975 1901 c-65 -5 -80 -9 -83 -23 -3 -16 7 -18 103 -18 l107 0 -66
-72 c-68 -75 -79 -98 -48 -98 23 0 182 177 182 202 0 20 -25 21 -195 9z"/>
<path d="M3906 1781 c-95 -63 -85 -189 15 -182 9 0 40 19 68 42 56 44 81 46
81 4 0 -26 -39 -75 -60 -75 -13 0 -13 -27 0 -35 15 -9 65 24 84 55 34 59 8
130 -49 130 -14 0 -41 -14 -62 -34 -53 -46 -77 -58 -91 -44 -29 29 1 89 63
124 11 6 15 15 11 22 -10 17 -26 15 -60 -7z"/>
</g>
</svg>
